<?xml version="1.0" encoding="UTF-8"?>
<svg xmlns="http://www.w3.org/2000/svg" version="1.1" viewBox="0 0 2000 2000">
  <!-- Generator: Adobe Illustrator 29.5.1, SVG Export Plug-In . SVG Version: 2.1.0 Build 141)  -->
  <defs>
    <style>
      .st0 {
        fill: #fff;
      }

      .st1 {
        display: none;
      }
    </style>
  </defs>
  <g id="Background" class="st1">
    <rect class="st0" width="2000" height="2000"/>
  </g>
  <g id="Layer_1">
    <path class="st0" d="M1289.02,709.89l75.27-54.09c36.84-26.47,56.45-70.81,51.26-115.87l-.04-.31c-8.68,32.14-29.98,59.99-59.85,76.64l-131.75,73.44c-39.62,22.08-64.18,63.89-64.18,109.25v230.54h0c0,24.82-5.66,48.31-15.75,69.27-.02.04-.04.07-.06.11-4.2,8.7-9.19,16.93-14.83,24.67-1.47,2.02-2.99,3.99-4.55,5.94-3.64,4.53-7.5,8.88-11.6,12.99-6.48,6.48-13.53,12.36-21.04,17.66-5.77,4.07-11.81,7.76-18.11,11.05-8.37,4.37-17.15,8.06-26.31,10.9-15.01,4.67-30.96,7.18-47.5,7.18s-32.5-2.51-47.5-7.18c-65.03-20.23-112.24-80.88-112.24-152.56,0-46.74,20.08-88.79,52.08-118,.22-.2.45-.4.67-.61,15.04-13.58,32.67-24.34,52.07-31.45,17.13-6.27,35.63-9.69,54.93-9.69,2.47,0,4.92.08,7.36.19.69.03,1.38.07,2.07.11,1.9.11,3.8.26,5.68.43.59.06,1.18.1,1.76.16,2.38.25,4.74.55,7.08.9.5.08,1,.17,1.5.25,1.89.3,3.77.64,5.64,1.01.7.14,1.39.28,2.08.42,1.99.42,3.98.88,5.94,1.37.33.08.67.16,1,.24,2.24.58,4.46,1.22,6.66,1.89.66.2,1.32.42,1.97.63,1.65.53,3.28,1.08,4.91,1.66.66.23,1.31.46,1.96.7,2.12.79,4.22,1.61,6.29,2.48.45.19.88.39,1.33.59,1.68.72,3.34,1.47,4.98,2.25.72.34,1.43.68,2.14,1.03,1.51.74,3.01,1.51,4.49,2.3.56.3,1.14.59,1.69.89,1.91,1.04,3.79,2.13,5.65,3.25.67.4,1.32.82,1.99,1.23,1.3.81,2.58,1.63,3.85,2.47.71.47,1.43.94,2.13,1.43,1.52,1.04,3.03,2.11,4.51,3.21.68.5,1.35,1.01,2.02,1.52,1.34,1.02,2.67,2.06,3.98,3.13.51.42,1.03.83,1.53,1.25v-295.93c-32.77-7.98-66.99-12.23-102.21-12.23-237.98,0-430.91,192.92-430.91,430.91s192.92,430.91,430.91,430.91,430.91-192.92,430.91-430.91c0-126.77-54.75-240.75-141.89-319.6ZM869.8,1377.3c-100.21-37.65-179.96-117.42-217.57-217.64l132.39-89.91c16.57,88.57,86.59,158.53,175.18,175.03l-90,132.52Z"/>
  </g>
</svg>